<svg width="2768" height="1614" xmlns="http://www.w3.org/2000/svg" xmlns:xlink="http://www.w3.org/1999/xlink" overflow="hidden"><defs><clipPath id="clip0"><rect x="1306" y="792" width="2768" height="1614"/></clipPath><clipPath id="clip1"><rect x="1799" y="966" width="2159" height="1319"/></clipPath><clipPath id="clip2"><rect x="1310" y="796" width="2762" height="1605"/></clipPath><clipPath id="clip3"><rect x="1310" y="796" width="2762" height="1605"/></clipPath><clipPath id="clip4"><rect x="1310" y="796" width="2762" height="1605"/></clipPath><clipPath id="clip5"><rect x="1310" y="796" width="2762" height="1605"/></clipPath><clipPath id="clip6"><rect x="1310" y="796" width="2762" height="1605"/></clipPath><clipPath id="clip7"><rect x="1310" y="796" width="2762" height="1605"/></clipPath><clipPath id="clip8"><rect x="1310" y="796" width="2762" height="1605"/></clipPath><clipPath id="clip9"><rect x="1310" y="796" width="2762" height="1605"/></clipPath><clipPath id="clip10"><rect x="1310" y="796" width="2762" height="1605"/></clipPath><clipPath id="clip11"><rect x="1310" y="796" width="2762" height="1605"/></clipPath><clipPath id="clip12"><rect x="1310" y="796" width="2762" height="1605"/></clipPath><clipPath id="clip13"><rect x="1310" y="796" width="2762" height="1605"/></clipPath><clipPath id="clip14"><rect x="1310" y="796" width="2762" height="1605"/></clipPath><clipPath id="clip15"><rect x="1310" y="796" width="2762" height="1605"/></clipPath><clipPath id="clip16"><rect x="1310" y="796" width="2762" height="1605"/></clipPath><clipPath id="clip17"><rect x="1310" y="796" width="2762" height="1605"/></clipPath><clipPath id="clip18"><rect x="1310" y="796" width="2762" height="1605"/></clipPath><clipPath id="clip19"><rect x="1310" y="796" width="2762" height="1605"/></clipPath><clipPath id="clip20"><rect x="1310" y="796" width="2762" height="1605"/></clipPath><clipPath id="clip21"><rect x="1310" y="796" width="2762" height="1605"/></clipPath><clipPath id="clip22"><rect x="1310" y="796" width="2762" height="1605"/></clipPath><clipPath id="clip23"><rect x="1310" y="796" width="2762" height="1605"/></clipPath><clipPath id="clip24"><rect x="1310" y="796" width="2762" height="1605"/></clipPath><clipPath id="clip25"><rect x="1310" y="796" width="2762" height="1605"/></clipPath><clipPath id="clip26"><rect x="1310" y="796" width="2762" height="1605"/></clipPath><clipPath id="clip27"><rect x="1310" y="796" width="2762" height="1605"/></clipPath><clipPath id="clip28"><rect x="1310" y="796" width="2762" height="1605"/></clipPath></defs><g clip-path="url(#clip0)" transform="translate(-1306 -792)"><rect x="1310" y="797" width="2762" height="1604" fill="#FFFFFF" fill-opacity="1"/><g clip-path="url(#clip1)"><path d="M2177.07 2235.07 1799 2235.07 1799 2183.07 2177.07 2183.07ZM2190.07 2089.07 1799 2089.07 1799 2037.07 2190.07 2037.07ZM2234.07 1943.06 1799 1943.06 1799 1891.06 2234.07 1891.06ZM2240.07 1797.06 1799 1797.06 1799 1745.06 2240.07 1745.06ZM2262.07 1650.05 1799 1650.05 1799 1599.05 2262.07 1599.05ZM2313.08 1504.05 1799 1504.05 1799 1452.05 2313.08 1452.05ZM2927.1 1358.04 1799 1358.04 1799 1306.04 2927.1 1306.04ZM3394.11 1212.04 1799 1212.04 1799 1160.04 3394.11 1160.04ZM3641.12 1066.03 1799 1066.03 1799 1014.03 3641.12 1014.03Z" fill="#002060" fill-rule="nonzero" fill-opacity="1"/></g><g clip-path="url(#clip2)"><path d="M0 0 0.000360892 1316" stroke="#D9D9D9" stroke-width="3.4375" stroke-linecap="butt" stroke-linejoin="round" stroke-miterlimit="10" stroke-opacity="1" fill="none" fill-rule="evenodd" transform="matrix(1 0 0 -1 1799.5 2282.5)"/></g><g clip-path="url(#clip3)"><text fill="#404040" fill-opacity="1" font-family="Calibri,Calibri_MSFontService,sans-serif" font-style="normal" font-variant="normal" font-weight="400" font-stretch="normal" font-size="48" text-anchor="start" direction="ltr" writing-mode="lr-tb" unicode-bidi="normal" text-decoration="none" transform="matrix(1 0 0 1 2204.69 2226)">5,258</text></g><g clip-path="url(#clip4)"><text fill="#404040" fill-opacity="1" font-family="Calibri,Calibri_MSFontService,sans-serif" font-style="normal" font-variant="normal" font-weight="400" font-stretch="normal" font-size="48" text-anchor="start" direction="ltr" writing-mode="lr-tb" unicode-bidi="normal" text-decoration="none" transform="matrix(1 0 0 1 2217.7 2080)">5,439</text></g><g clip-path="url(#clip5)"><text fill="#404040" fill-opacity="1" font-family="Calibri,Calibri_MSFontService,sans-serif" font-style="normal" font-variant="normal" font-weight="400" font-stretch="normal" font-size="48" text-anchor="start" direction="ltr" writing-mode="lr-tb" unicode-bidi="normal" text-decoration="none" transform="matrix(1 0 0 1 2261.39 1934)">6,047</text></g><g clip-path="url(#clip6)"><text fill="#404040" fill-opacity="1" font-family="Calibri,Calibri_MSFontService,sans-serif" font-style="normal" font-variant="normal" font-weight="400" font-stretch="normal" font-size="48" text-anchor="start" direction="ltr" writing-mode="lr-tb" unicode-bidi="normal" text-decoration="none" transform="matrix(1 0 0 1 2267.79 1787)">6,136</text></g><g clip-path="url(#clip7)"><text fill="#404040" fill-opacity="1" font-family="Calibri,Calibri_MSFontService,sans-serif" font-style="normal" font-variant="normal" font-weight="400" font-stretch="normal" font-size="48" text-anchor="start" direction="ltr" writing-mode="lr-tb" unicode-bidi="normal" text-decoration="none" transform="matrix(1 0 0 1 2289.34 1641)">6,436</text></g><g clip-path="url(#clip8)"><text fill="#404040" fill-opacity="1" font-family="Calibri,Calibri_MSFontService,sans-serif" font-style="normal" font-variant="normal" font-weight="400" font-stretch="normal" font-size="48" text-anchor="start" direction="ltr" writing-mode="lr-tb" unicode-bidi="normal" text-decoration="none" transform="matrix(1 0 0 1 2340.58 1495)">7,149</text></g><g clip-path="url(#clip9)"><text fill="#404040" fill-opacity="1" font-family="Calibri,Calibri_MSFontService,sans-serif" font-style="normal" font-variant="normal" font-weight="400" font-stretch="normal" font-size="48" text-anchor="start" direction="ltr" writing-mode="lr-tb" unicode-bidi="normal" text-decoration="none" transform="matrix(1 0 0 1 2954.96 1349)">15,699</text></g><g clip-path="url(#clip10)"><text fill="#404040" fill-opacity="1" font-family="Calibri,Calibri_MSFontService,sans-serif" font-style="normal" font-variant="normal" font-weight="400" font-stretch="normal" font-size="48" text-anchor="start" direction="ltr" writing-mode="lr-tb" unicode-bidi="normal" text-decoration="none" transform="matrix(1 0 0 1 3422.04 1203)">22,199</text></g><g clip-path="url(#clip11)"><text fill="#404040" fill-opacity="1" font-family="Calibri,Calibri_MSFontService,sans-serif" font-style="normal" font-variant="normal" font-weight="400" font-stretch="normal" font-size="48" text-anchor="start" direction="ltr" writing-mode="lr-tb" unicode-bidi="normal" text-decoration="none" transform="matrix(1 0 0 1 3668.44 1056)">25,628</text></g><g clip-path="url(#clip12)"><text fill="#595959" fill-opacity="1" font-family="Calibri,Calibri_MSFontService,sans-serif" font-style="normal" font-variant="normal" font-weight="400" font-stretch="normal" font-size="48" text-anchor="start" direction="ltr" writing-mode="lr-tb" unicode-bidi="normal" text-decoration="none" transform="matrix(1 0 0 1 1787.17 2359)">0</text></g><g clip-path="url(#clip13)"><text fill="#595959" fill-opacity="1" font-family="Calibri,Calibri_MSFontService,sans-serif" font-style="normal" font-variant="normal" font-weight="400" font-stretch="normal" font-size="48" text-anchor="start" direction="ltr" writing-mode="lr-tb" unicode-bidi="normal" text-decoration="none" transform="matrix(1 0 0 1 2103.88 2359)">5,000</text></g><g clip-path="url(#clip14)"><text fill="#595959" fill-opacity="1" font-family="Calibri,Calibri_MSFontService,sans-serif" font-style="normal" font-variant="normal" font-weight="400" font-stretch="normal" font-size="48" text-anchor="start" direction="ltr" writing-mode="lr-tb" unicode-bidi="normal" text-decoration="none" transform="matrix(1 0 0 1 2450.98 2359)">10,000</text></g><g clip-path="url(#clip15)"><text fill="#595959" fill-opacity="1" font-family="Calibri,Calibri_MSFontService,sans-serif" font-style="normal" font-variant="normal" font-weight="400" font-stretch="normal" font-size="48" text-anchor="start" direction="ltr" writing-mode="lr-tb" unicode-bidi="normal" text-decoration="none" transform="matrix(1 0 0 1 2810.27 2359)">15,000</text></g><g clip-path="url(#clip16)"><text fill="#595959" fill-opacity="1" font-family="Calibri,Calibri_MSFontService,sans-serif" font-style="normal" font-variant="normal" font-weight="400" font-stretch="normal" font-size="48" text-anchor="start" direction="ltr" writing-mode="lr-tb" unicode-bidi="normal" text-decoration="none" transform="matrix(1 0 0 1 3169.56 2359)">20,000</text></g><g clip-path="url(#clip17)"><text fill="#595959" fill-opacity="1" font-family="Calibri,Calibri_MSFontService,sans-serif" font-style="normal" font-variant="normal" font-weight="400" font-stretch="normal" font-size="48" text-anchor="start" direction="ltr" writing-mode="lr-tb" unicode-bidi="normal" text-decoration="none" transform="matrix(1 0 0 1 3528.85 2359)">25,000</text></g><g clip-path="url(#clip18)"><text fill="#595959" fill-opacity="1" font-family="Calibri,Calibri_MSFontService,sans-serif" font-style="normal" font-variant="normal" font-weight="400" font-stretch="normal" font-size="48" text-anchor="start" direction="ltr" writing-mode="lr-tb" unicode-bidi="normal" text-decoration="none" transform="matrix(1 0 0 1 3888.14 2359)">30,000</text></g><g clip-path="url(#clip19)"><text fill="#595959" fill-opacity="1" font-family="Calibri,Calibri_MSFontService,sans-serif" font-style="normal" font-variant="normal" font-weight="400" font-stretch="normal" font-size="48" text-anchor="start" direction="ltr" writing-mode="lr-tb" unicode-bidi="normal" text-decoration="none" transform="matrix(1 0 0 1 1603.67 2222)">Finance</text></g><g clip-path="url(#clip20)"><text fill="#595959" fill-opacity="1" font-family="Calibri,Calibri_MSFontService,sans-serif" font-style="normal" font-variant="normal" font-weight="400" font-stretch="normal" font-size="48" text-anchor="start" direction="ltr" writing-mode="lr-tb" unicode-bidi="normal" text-decoration="none" transform="matrix(1 0 0 1 1402.39 2076)">Human Resources</text></g><g clip-path="url(#clip21)"><text fill="#595959" fill-opacity="1" font-family="Calibri,Calibri_MSFontService,sans-serif" font-style="normal" font-variant="normal" font-weight="400" font-stretch="normal" font-size="48" text-anchor="start" direction="ltr" writing-mode="lr-tb" unicode-bidi="normal" text-decoration="none" transform="matrix(1 0 0 1 1552.86 1930)">Marketing</text></g><g clip-path="url(#clip22)"><text fill="#595959" fill-opacity="1" font-family="Calibri,Calibri_MSFontService,sans-serif" font-style="normal" font-variant="normal" font-weight="400" font-stretch="normal" font-size="48" text-anchor="start" direction="ltr" writing-mode="lr-tb" unicode-bidi="normal" text-decoration="none" transform="matrix(1 0 0 1 1340.24 1784)">Quality Management</text></g><g clip-path="url(#clip23)"><text fill="#595959" fill-opacity="1" font-family="Calibri,Calibri_MSFontService,sans-serif" font-style="normal" font-variant="normal" font-weight="400" font-stretch="normal" font-size="48" text-anchor="start" direction="ltr" writing-mode="lr-tb" unicode-bidi="normal" text-decoration="none" transform="matrix(1 0 0 1 1576.45 1637)">Research</text></g><g clip-path="url(#clip24)"><text fill="#595959" fill-opacity="1" font-family="Calibri,Calibri_MSFontService,sans-serif" font-style="normal" font-variant="normal" font-weight="400" font-stretch="normal" font-size="48" text-anchor="start" direction="ltr" writing-mode="lr-tb" unicode-bidi="normal" text-decoration="none" transform="matrix(1 0 0 1 1413.53 1491)">Customer Service</text></g><g clip-path="url(#clip25)"><text fill="#595959" fill-opacity="1" font-family="Calibri,Calibri_MSFontService,sans-serif" font-style="normal" font-variant="normal" font-weight="400" font-stretch="normal" font-size="48" text-anchor="start" direction="ltr" writing-mode="lr-tb" unicode-bidi="normal" text-decoration="none" transform="matrix(1 0 0 1 1655.76 1345)">Sales</text></g><g clip-path="url(#clip26)"><text fill="#595959" fill-opacity="1" font-family="Calibri,Calibri_MSFontService,sans-serif" font-style="normal" font-variant="normal" font-weight="400" font-stretch="normal" font-size="48" text-anchor="start" direction="ltr" writing-mode="lr-tb" unicode-bidi="normal" text-decoration="none" transform="matrix(1 0 0 1 1539.02 1199)">Production</text></g><g clip-path="url(#clip27)"><text fill="#595959" fill-opacity="1" font-family="Calibri,Calibri_MSFontService,sans-serif" font-style="normal" font-variant="normal" font-weight="400" font-stretch="normal" font-size="48" text-anchor="start" direction="ltr" writing-mode="lr-tb" unicode-bidi="normal" text-decoration="none" transform="matrix(1 0 0 1 1490.03 1053)">Development</text></g><g clip-path="url(#clip28)"><text fill="#595959" fill-opacity="1" font-family="Calibri,Calibri_MSFontService,sans-serif" font-style="normal" font-variant="normal" font-weight="400" font-stretch="normal" font-size="64" text-anchor="start" direction="ltr" writing-mode="lr-tb" unicode-bidi="normal" text-decoration="none" transform="matrix(1 0 0 1 2118.19 892)">Count of Employees Retiring by Department</text></g><rect x="1310.5" y="797.5" width="2762" height="1604" stroke="#D9D9D9" stroke-width="3.4375" stroke-linecap="butt" stroke-linejoin="round" stroke-miterlimit="10" stroke-opacity="1" fill="none"/></g></svg>