<svg width="2769" height="1664" xmlns="http://www.w3.org/2000/svg" xmlns:xlink="http://www.w3.org/1999/xlink" overflow="hidden"><defs><clipPath id="clip0"><rect x="2167" y="2273" width="2769" height="1664"/></clipPath><clipPath id="clip1"><rect x="2661" y="2445" width="2187" height="1372"/></clipPath><clipPath id="clip2"><rect x="2172" y="2275" width="2759" height="1657"/></clipPath><clipPath id="clip3"><rect x="2172" y="2275" width="2759" height="1657"/></clipPath><clipPath id="clip4"><rect x="2172" y="2275" width="2759" height="1657"/></clipPath><clipPath id="clip5"><rect x="2172" y="2275" width="2759" height="1657"/></clipPath><clipPath id="clip6"><rect x="2172" y="2275" width="2759" height="1657"/></clipPath><clipPath id="clip7"><rect x="2172" y="2275" width="2759" height="1657"/></clipPath><clipPath id="clip8"><rect x="2172" y="2275" width="2759" height="1657"/></clipPath><clipPath id="clip9"><rect x="2172" y="2275" width="2759" height="1657"/></clipPath><clipPath id="clip10"><rect x="2172" y="2275" width="2759" height="1657"/></clipPath><clipPath id="clip11"><rect x="2172" y="2275" width="2759" height="1657"/></clipPath><clipPath id="clip12"><rect x="2172" y="2275" width="2759" height="1657"/></clipPath><clipPath id="clip13"><rect x="2172" y="2275" width="2759" height="1657"/></clipPath><clipPath id="clip14"><rect x="2172" y="2275" width="2759" height="1657"/></clipPath><clipPath id="clip15"><rect x="2172" y="2275" width="2759" height="1657"/></clipPath><clipPath id="clip16"><rect x="2172" y="2275" width="2759" height="1657"/></clipPath><clipPath id="clip17"><rect x="2172" y="2275" width="2759" height="1657"/></clipPath><clipPath id="clip18"><rect x="2172" y="2275" width="2759" height="1657"/></clipPath><clipPath id="clip19"><rect x="2172" y="2275" width="2759" height="1657"/></clipPath><clipPath id="clip20"><rect x="2172" y="2275" width="2759" height="1657"/></clipPath><clipPath id="clip21"><rect x="2172" y="2275" width="2759" height="1657"/></clipPath><clipPath id="clip22"><rect x="2172" y="2275" width="2759" height="1657"/></clipPath><clipPath id="clip23"><rect x="2172" y="2275" width="2759" height="1657"/></clipPath><clipPath id="clip24"><rect x="2172" y="2275" width="2759" height="1657"/></clipPath><clipPath id="clip25"><rect x="2172" y="2275" width="2759" height="1657"/></clipPath><clipPath id="clip26"><rect x="2172" y="2275" width="2759" height="1657"/></clipPath><clipPath id="clip27"><rect x="2172" y="2275" width="2759" height="1657"/></clipPath><clipPath id="clip28"><rect x="2172" y="2275" width="2759" height="1657"/></clipPath><clipPath id="clip29"><rect x="2172" y="2275" width="2759" height="1657"/></clipPath><clipPath id="clip30"><rect x="2172" y="2275" width="2759" height="1657"/></clipPath><clipPath id="clip31"><rect x="2172" y="2275" width="2759" height="1657"/></clipPath><clipPath id="clip32"><rect x="2172" y="2275" width="2759" height="1657"/></clipPath></defs><g clip-path="url(#clip0)" transform="translate(-2167 -2273)"><rect x="2172" y="2275" width="2760" height="1658" fill="#FFFFFF" fill-opacity="1"/><g clip-path="url(#clip1)"><path d="M2984.1 3765.12 2661 3765.12 2661 3711.12 2984.1 3711.12ZM3085.1 3613.12 2661 3613.12 2661 3559.12 3085.1 3559.12ZM3128.1 3460.11 2661 3460.11 2661 3407.11 3128.1 3407.11ZM3155.1 3308.11 2661 3308.11 2661 3254.11 3155.1 3254.11ZM3211.11 3156.1 2661 3156.1 2661 3102.1 3211.11 3102.1ZM3220.11 3004.1 2661 3004.1 2661 2950.1 3220.11 2950.1ZM3849.13 2852.09 2661 2852.09 2661 2798.09 3849.13 2798.09ZM4216.14 2700.09 2661 2700.09 2661 2646.09 4216.14 2646.09ZM4561.15 2548.08 2661 2548.08 2661 2494.08 4561.15 2494.08Z" fill="#002060" fill-rule="nonzero" fill-opacity="1"/></g><g clip-path="url(#clip2)"><path d="M0 0 0.000360892 1368" stroke="#D9D9D9" stroke-width="3.4375" stroke-linecap="butt" stroke-linejoin="round" stroke-miterlimit="10" stroke-opacity="1" fill="none" fill-rule="evenodd" transform="matrix(1 0 0 -1 2661.5 3813.5)"/></g><g clip-path="url(#clip3)"><text fill="#404040" fill-opacity="1" font-family="Calibri,Calibri_MSFontService,sans-serif" font-style="normal" font-variant="normal" font-weight="400" font-stretch="normal" font-size="48" text-anchor="start" direction="ltr" writing-mode="lr-tb" unicode-bidi="normal" text-decoration="none" transform="matrix(1 0 0 1 3011.86 3754)">74</text></g><g clip-path="url(#clip4)"><text fill="#404040" fill-opacity="1" font-family="Calibri,Calibri_MSFontService,sans-serif" font-style="normal" font-variant="normal" font-weight="400" font-stretch="normal" font-size="48" text-anchor="start" direction="ltr" writing-mode="lr-tb" unicode-bidi="normal" text-decoration="none" transform="matrix(1 0 0 1 3112.29 3602)">97</text></g><g clip-path="url(#clip5)"><text fill="#404040" fill-opacity="1" font-family="Calibri,Calibri_MSFontService,sans-serif" font-style="normal" font-variant="normal" font-weight="400" font-stretch="normal" font-size="48" text-anchor="start" direction="ltr" writing-mode="lr-tb" unicode-bidi="normal" text-decoration="none" transform="matrix(1 0 0 1 3155.96 3450)">107</text></g><g clip-path="url(#clip6)"><text fill="#404040" fill-opacity="1" font-family="Calibri,Calibri_MSFontService,sans-serif" font-style="normal" font-variant="normal" font-weight="400" font-stretch="normal" font-size="48" text-anchor="start" direction="ltr" writing-mode="lr-tb" unicode-bidi="normal" text-decoration="none" transform="matrix(1 0 0 1 3182.16 3298)">113</text></g><g clip-path="url(#clip7)"><text fill="#404040" fill-opacity="1" font-family="Calibri,Calibri_MSFontService,sans-serif" font-style="normal" font-variant="normal" font-weight="400" font-stretch="normal" font-size="48" text-anchor="start" direction="ltr" writing-mode="lr-tb" unicode-bidi="normal" text-decoration="none" transform="matrix(1 0 0 1 3238.93 3146)">126</text></g><g clip-path="url(#clip8)"><text fill="#404040" fill-opacity="1" font-family="Calibri,Calibri_MSFontService,sans-serif" font-style="normal" font-variant="normal" font-weight="400" font-stretch="normal" font-size="48" text-anchor="start" direction="ltr" writing-mode="lr-tb" unicode-bidi="normal" text-decoration="none" transform="matrix(1 0 0 1 3247.66 2994)">128</text></g><g clip-path="url(#clip9)"><text fill="#404040" fill-opacity="1" font-family="Calibri,Calibri_MSFontService,sans-serif" font-style="normal" font-variant="normal" font-weight="400" font-stretch="normal" font-size="48" text-anchor="start" direction="ltr" writing-mode="lr-tb" unicode-bidi="normal" text-decoration="none" transform="matrix(1 0 0 1 3876.47 2842)">272</text></g><g clip-path="url(#clip10)"><text fill="#404040" fill-opacity="1" font-family="Calibri,Calibri_MSFontService,sans-serif" font-style="normal" font-variant="normal" font-weight="400" font-stretch="normal" font-size="48" text-anchor="start" direction="ltr" writing-mode="lr-tb" unicode-bidi="normal" text-decoration="none" transform="matrix(1 0 0 1 4243.27 2690)">356</text></g><g clip-path="url(#clip11)"><text fill="#404040" fill-opacity="1" font-family="Calibri,Calibri_MSFontService,sans-serif" font-style="normal" font-variant="normal" font-weight="400" font-stretch="normal" font-size="48" text-anchor="start" direction="ltr" writing-mode="lr-tb" unicode-bidi="normal" text-decoration="none" transform="matrix(1 0 0 1 4588.24 2538)">435</text></g><g clip-path="url(#clip12)"><text fill="#595959" fill-opacity="1" font-family="Calibri,Calibri_MSFontService,sans-serif" font-style="normal" font-variant="normal" font-weight="400" font-stretch="normal" font-size="48" text-anchor="start" direction="ltr" writing-mode="lr-tb" unicode-bidi="normal" text-decoration="none" transform="matrix(1 0 0 1 2649.03 3890)">0</text></g><g clip-path="url(#clip13)"><text fill="#595959" fill-opacity="1" font-family="Calibri,Calibri_MSFontService,sans-serif" font-style="normal" font-variant="normal" font-weight="400" font-stretch="normal" font-size="48" text-anchor="start" direction="ltr" writing-mode="lr-tb" unicode-bidi="normal" text-decoration="none" transform="matrix(1 0 0 1 2855.17 3890)">50</text></g><g clip-path="url(#clip14)"><text fill="#595959" fill-opacity="1" font-family="Calibri,Calibri_MSFontService,sans-serif" font-style="normal" font-variant="normal" font-weight="400" font-stretch="normal" font-size="48" text-anchor="start" direction="ltr" writing-mode="lr-tb" unicode-bidi="normal" text-decoration="none" transform="matrix(1 0 0 1 3061.32 3890)">100</text></g><g clip-path="url(#clip15)"><text fill="#595959" fill-opacity="1" font-family="Calibri,Calibri_MSFontService,sans-serif" font-style="normal" font-variant="normal" font-weight="400" font-stretch="normal" font-size="48" text-anchor="start" direction="ltr" writing-mode="lr-tb" unicode-bidi="normal" text-decoration="none" transform="matrix(1 0 0 1 3279.65 3890)">150</text></g><g clip-path="url(#clip16)"><text fill="#595959" fill-opacity="1" font-family="Calibri,Calibri_MSFontService,sans-serif" font-style="normal" font-variant="normal" font-weight="400" font-stretch="normal" font-size="48" text-anchor="start" direction="ltr" writing-mode="lr-tb" unicode-bidi="normal" text-decoration="none" transform="matrix(1 0 0 1 3497.99 3890)">200</text></g><g clip-path="url(#clip17)"><text fill="#595959" fill-opacity="1" font-family="Calibri,Calibri_MSFontService,sans-serif" font-style="normal" font-variant="normal" font-weight="400" font-stretch="normal" font-size="48" text-anchor="start" direction="ltr" writing-mode="lr-tb" unicode-bidi="normal" text-decoration="none" transform="matrix(1 0 0 1 3716.32 3890)">250</text></g><g clip-path="url(#clip18)"><text fill="#595959" fill-opacity="1" font-family="Calibri,Calibri_MSFontService,sans-serif" font-style="normal" font-variant="normal" font-weight="400" font-stretch="normal" font-size="48" text-anchor="start" direction="ltr" writing-mode="lr-tb" unicode-bidi="normal" text-decoration="none" transform="matrix(1 0 0 1 3934.66 3890)">300</text></g><g clip-path="url(#clip19)"><text fill="#595959" fill-opacity="1" font-family="Calibri,Calibri_MSFontService,sans-serif" font-style="normal" font-variant="normal" font-weight="400" font-stretch="normal" font-size="48" text-anchor="start" direction="ltr" writing-mode="lr-tb" unicode-bidi="normal" text-decoration="none" transform="matrix(1 0 0 1 4153 3890)">350</text></g><g clip-path="url(#clip20)"><text fill="#595959" fill-opacity="1" font-family="Calibri,Calibri_MSFontService,sans-serif" font-style="normal" font-variant="normal" font-weight="400" font-stretch="normal" font-size="48" text-anchor="start" direction="ltr" writing-mode="lr-tb" unicode-bidi="normal" text-decoration="none" transform="matrix(1 0 0 1 4371.33 3890)">400</text></g><g clip-path="url(#clip21)"><text fill="#595959" fill-opacity="1" font-family="Calibri,Calibri_MSFontService,sans-serif" font-style="normal" font-variant="normal" font-weight="400" font-stretch="normal" font-size="48" text-anchor="start" direction="ltr" writing-mode="lr-tb" unicode-bidi="normal" text-decoration="none" transform="matrix(1 0 0 1 4589.67 3890)">450</text></g><g clip-path="url(#clip22)"><text fill="#595959" fill-opacity="1" font-family="Calibri,Calibri_MSFontService,sans-serif" font-style="normal" font-variant="normal" font-weight="400" font-stretch="normal" font-size="48" text-anchor="start" direction="ltr" writing-mode="lr-tb" unicode-bidi="normal" text-decoration="none" transform="matrix(1 0 0 1 4808 3890)">500</text></g><g clip-path="url(#clip23)"><text fill="#595959" fill-opacity="1" font-family="Calibri,Calibri_MSFontService,sans-serif" font-style="normal" font-variant="normal" font-weight="400" font-stretch="normal" font-size="48" text-anchor="start" direction="ltr" writing-mode="lr-tb" unicode-bidi="normal" text-decoration="none" transform="matrix(1 0 0 1 2465.53 3751)">Finance</text></g><g clip-path="url(#clip24)"><text fill="#595959" fill-opacity="1" font-family="Calibri,Calibri_MSFontService,sans-serif" font-style="normal" font-variant="normal" font-weight="400" font-stretch="normal" font-size="48" text-anchor="start" direction="ltr" writing-mode="lr-tb" unicode-bidi="normal" text-decoration="none" transform="matrix(1 0 0 1 2202.1 3599)">Quality Management</text></g><g clip-path="url(#clip25)"><text fill="#595959" fill-opacity="1" font-family="Calibri,Calibri_MSFontService,sans-serif" font-style="normal" font-variant="normal" font-weight="400" font-stretch="normal" font-size="48" text-anchor="start" direction="ltr" writing-mode="lr-tb" unicode-bidi="normal" text-decoration="none" transform="matrix(1 0 0 1 2264.25 3446)">Human Resources</text></g><g clip-path="url(#clip26)"><text fill="#595959" fill-opacity="1" font-family="Calibri,Calibri_MSFontService,sans-serif" font-style="normal" font-variant="normal" font-weight="400" font-stretch="normal" font-size="48" text-anchor="start" direction="ltr" writing-mode="lr-tb" unicode-bidi="normal" text-decoration="none" transform="matrix(1 0 0 1 2438.3 3294)">Research</text></g><g clip-path="url(#clip27)"><text fill="#595959" fill-opacity="1" font-family="Calibri,Calibri_MSFontService,sans-serif" font-style="normal" font-variant="normal" font-weight="400" font-stretch="normal" font-size="48" text-anchor="start" direction="ltr" writing-mode="lr-tb" unicode-bidi="normal" text-decoration="none" transform="matrix(1 0 0 1 2414.72 3142)">Marketing</text></g><g clip-path="url(#clip28)"><text fill="#595959" fill-opacity="1" font-family="Calibri,Calibri_MSFontService,sans-serif" font-style="normal" font-variant="normal" font-weight="400" font-stretch="normal" font-size="48" text-anchor="start" direction="ltr" writing-mode="lr-tb" unicode-bidi="normal" text-decoration="none" transform="matrix(1 0 0 1 2275.39 2990)">Customer Service</text></g><g clip-path="url(#clip29)"><text fill="#595959" fill-opacity="1" font-family="Calibri,Calibri_MSFontService,sans-serif" font-style="normal" font-variant="normal" font-weight="400" font-stretch="normal" font-size="48" text-anchor="start" direction="ltr" writing-mode="lr-tb" unicode-bidi="normal" text-decoration="none" transform="matrix(1 0 0 1 2517.62 2838)">Sales</text></g><g clip-path="url(#clip30)"><text fill="#595959" fill-opacity="1" font-family="Calibri,Calibri_MSFontService,sans-serif" font-style="normal" font-variant="normal" font-weight="400" font-stretch="normal" font-size="48" text-anchor="start" direction="ltr" writing-mode="lr-tb" unicode-bidi="normal" text-decoration="none" transform="matrix(1 0 0 1 2400.88 2686)">Production</text></g><g clip-path="url(#clip31)"><text fill="#595959" fill-opacity="1" font-family="Calibri,Calibri_MSFontService,sans-serif" font-style="normal" font-variant="normal" font-weight="400" font-stretch="normal" font-size="48" text-anchor="start" direction="ltr" writing-mode="lr-tb" unicode-bidi="normal" text-decoration="none" transform="matrix(1 0 0 1 2351.88 2534)">Development</text></g><g clip-path="url(#clip32)"><text fill="#595959" fill-opacity="1" font-family="Calibri,Calibri_MSFontService,sans-serif" font-style="normal" font-variant="normal" font-weight="400" font-stretch="normal" font-size="64" text-anchor="start" direction="ltr" writing-mode="lr-tb" unicode-bidi="normal" text-decoration="none" transform="matrix(1 0 0 1 2794.45 2370)">Count of Employees Eligible to be Mentors by Department</text></g><rect x="2172.5" y="2275.5" width="2760" height="1658" stroke="#D9D9D9" stroke-width="3.4375" stroke-linecap="butt" stroke-linejoin="round" stroke-miterlimit="10" stroke-opacity="1" fill="none"/></g></svg>