<svg width="2786" height="1655" xmlns="http://www.w3.org/2000/svg" xmlns:xlink="http://www.w3.org/1999/xlink" overflow="hidden"><defs><clipPath id="clip0"><rect x="2585" y="2635" width="2786" height="1655"/></clipPath><clipPath id="clip1"><rect x="3078" y="2821" width="2176" height="1348"/></clipPath><clipPath id="clip2"><rect x="3078" y="2821" width="2176" height="1348"/></clipPath><clipPath id="clip3"><rect x="2589" y="2640" width="2779" height="1644"/></clipPath><clipPath id="clip4"><rect x="2589" y="2640" width="2779" height="1644"/></clipPath><clipPath id="clip5"><rect x="2589" y="2640" width="2779" height="1644"/></clipPath><clipPath id="clip6"><rect x="2589" y="2640" width="2779" height="1644"/></clipPath><clipPath id="clip7"><rect x="2589" y="2640" width="2779" height="1644"/></clipPath><clipPath id="clip8"><rect x="2589" y="2640" width="2779" height="1644"/></clipPath><clipPath id="clip9"><rect x="2589" y="2640" width="2779" height="1644"/></clipPath><clipPath id="clip10"><rect x="2589" y="2640" width="2779" height="1644"/></clipPath><clipPath id="clip11"><rect x="2589" y="2640" width="2779" height="1644"/></clipPath><clipPath id="clip12"><rect x="2589" y="2640" width="2779" height="1644"/></clipPath><clipPath id="clip13"><rect x="2589" y="2640" width="2779" height="1644"/></clipPath><clipPath id="clip14"><rect x="2589" y="2640" width="2779" height="1644"/></clipPath><clipPath id="clip15"><rect x="2589" y="2640" width="2779" height="1644"/></clipPath><clipPath id="clip16"><rect x="2589" y="2640" width="2779" height="1644"/></clipPath><clipPath id="clip17"><rect x="2589" y="2640" width="2779" height="1644"/></clipPath><clipPath id="clip18"><rect x="2589" y="2640" width="2779" height="1644"/></clipPath><clipPath id="clip19"><rect x="2589" y="2640" width="2779" height="1644"/></clipPath><clipPath id="clip20"><rect x="2589" y="2640" width="2779" height="1644"/></clipPath><clipPath id="clip21"><rect x="2589" y="2640" width="2779" height="1644"/></clipPath><clipPath id="clip22"><rect x="2589" y="2640" width="2779" height="1644"/></clipPath><clipPath id="clip23"><rect x="2589" y="2640" width="2779" height="1644"/></clipPath><clipPath id="clip24"><rect x="2589" y="2640" width="2779" height="1644"/></clipPath><clipPath id="clip25"><rect x="2589" y="2640" width="2779" height="1644"/></clipPath><clipPath id="clip26"><rect x="2589" y="2640" width="2779" height="1644"/></clipPath><clipPath id="clip27"><rect x="2589" y="2640" width="2779" height="1644"/></clipPath><clipPath id="clip28"><rect x="2589" y="2640" width="2779" height="1644"/></clipPath><clipPath id="clip29"><rect x="2589" y="2640" width="2779" height="1644"/></clipPath><clipPath id="clip30"><rect x="2589" y="2640" width="2779" height="1644"/></clipPath><clipPath id="clip31"><rect x="2589" y="2640" width="2779" height="1644"/></clipPath><clipPath id="clip32"><rect x="2589" y="2640" width="2779" height="1644"/></clipPath><clipPath id="clip33"><rect x="2589" y="2640" width="2779" height="1644"/></clipPath><clipPath id="clip34"><rect x="2589" y="2640" width="2779" height="1644"/></clipPath><clipPath id="clip35"><rect x="2589" y="2640" width="2779" height="1644"/></clipPath><clipPath id="clip36"><rect x="2589" y="2640" width="2779" height="1644"/></clipPath><clipPath id="clip37"><rect x="2589" y="2640" width="2779" height="1644"/></clipPath><clipPath id="clip38"><rect x="2589" y="2640" width="2779" height="1644"/></clipPath></defs><g clip-path="url(#clip0)" transform="translate(-2585 -2635)"><rect x="2590" y="2640" width="2779" height="1645" fill="#FFFFFF" fill-opacity="1"/><g clip-path="url(#clip1)"><path d="M3084.1 4130.14 3078 4130.14 3078 4091.13 3084.1 4091.13ZM3086.1 3981.13 3078 3981.13 3078 3942.13 3086.1 3942.13ZM3088.1 3831.13 3078 3831.13 3078 3792.12 3088.1 3792.12ZM3085.1 3682.12 3078 3682.12 3078 3643.12 3085.1 3643.12ZM3087.1 3532.12 3078 3532.12 3078 3493.11 3087.1 3493.11ZM3088.1 3383.11 3078 3383.11 3078 3344.11 3088.1 3344.11ZM3098.1 3234.11 3078 3234.11 3078 3195.1 3098.1 3195.1ZM3104.1 3084.1 3078 3084.1 3078 3045.1 3104.1 3045.1ZM3110.1 2935.1 3078 2935.1 3078 2896.1 3110.1 2896.1Z" fill="#FF0000" fill-rule="nonzero" fill-opacity="1"/></g><g clip-path="url(#clip2)"><path d="M3459.11 4091.13 3078 4091.13 3078 4052.13 3459.11 4052.13ZM3472.11 3942.13 3078 3942.13 3078 3902.13 3472.11 3902.13ZM3516.12 3792.12 3078 3792.12 3078 3753.12 3516.12 3753.12ZM3523.12 3643.12 3078 3643.12 3078 3604.12 3523.12 3604.12ZM3545.12 3493.11 3078 3493.11 3078 3454.11 3545.12 3454.11ZM3596.12 3344.11 3078 3344.11 3078 3305.11 3596.12 3305.11ZM4215.14 3195.1 3078 3195.1 3078 3155.1 4215.14 3155.1ZM4686.15 3045.1 3078 3045.1 3078 3006.1 4686.15 3006.1ZM4935.16 2896.1 3078 2896.1 3078 2857.09 4935.16 2857.09Z" fill="#002060" fill-rule="nonzero" fill-opacity="1"/></g><g clip-path="url(#clip3)"><path d="M0 0 0.000360892 1344" stroke="#D9D9D9" stroke-width="3.4375" stroke-linecap="butt" stroke-linejoin="round" stroke-miterlimit="10" stroke-opacity="1" fill="none" fill-rule="evenodd" transform="matrix(1 0 0 -1 3078.5 4165.5)"/></g><g clip-path="url(#clip4)"><text fill="#404040" fill-opacity="1" font-family="Calibri,Calibri_MSFontService,sans-serif" font-style="normal" font-variant="normal" font-weight="400" font-stretch="normal" font-size="41" text-anchor="start" direction="ltr" writing-mode="lr-tb" unicode-bidi="normal" text-decoration="none" transform="matrix(1 0 0 1 3111.36 4125)">74</text></g><g clip-path="url(#clip5)"><text fill="#404040" fill-opacity="1" font-family="Calibri,Calibri_MSFontService,sans-serif" font-style="normal" font-variant="normal" font-weight="400" font-stretch="normal" font-size="41" text-anchor="start" direction="ltr" writing-mode="lr-tb" unicode-bidi="normal" text-decoration="none" transform="matrix(1 0 0 1 3113.75 3975)">107</text></g><g clip-path="url(#clip6)"><text fill="#404040" fill-opacity="1" font-family="Calibri,Calibri_MSFontService,sans-serif" font-style="normal" font-variant="normal" font-weight="400" font-stretch="normal" font-size="41" text-anchor="start" direction="ltr" writing-mode="lr-tb" unicode-bidi="normal" text-decoration="none" transform="matrix(1 0 0 1 3115.12 3826)">126</text></g><g clip-path="url(#clip7)"><text fill="#404040" fill-opacity="1" font-family="Calibri,Calibri_MSFontService,sans-serif" font-style="normal" font-variant="normal" font-weight="400" font-stretch="normal" font-size="41" text-anchor="start" direction="ltr" writing-mode="lr-tb" unicode-bidi="normal" text-decoration="none" transform="matrix(1 0 0 1 3113.02 3676)">97</text></g><g clip-path="url(#clip8)"><text fill="#404040" fill-opacity="1" font-family="Calibri,Calibri_MSFontService,sans-serif" font-style="normal" font-variant="normal" font-weight="400" font-stretch="normal" font-size="41" text-anchor="start" direction="ltr" writing-mode="lr-tb" unicode-bidi="normal" text-decoration="none" transform="matrix(1 0 0 1 3114.18 3527)">113</text></g><g clip-path="url(#clip9)"><text fill="#404040" fill-opacity="1" font-family="Calibri,Calibri_MSFontService,sans-serif" font-style="normal" font-variant="normal" font-weight="400" font-stretch="normal" font-size="41" text-anchor="start" direction="ltr" writing-mode="lr-tb" unicode-bidi="normal" text-decoration="none" transform="matrix(1 0 0 1 3115.27 3377)">128</text></g><g clip-path="url(#clip10)"><text fill="#404040" fill-opacity="1" font-family="Calibri,Calibri_MSFontService,sans-serif" font-style="normal" font-variant="normal" font-weight="400" font-stretch="normal" font-size="41" text-anchor="start" direction="ltr" writing-mode="lr-tb" unicode-bidi="normal" text-decoration="none" transform="matrix(1 0 0 1 3125.7 3228)">272</text></g><g clip-path="url(#clip11)"><text fill="#404040" fill-opacity="1" font-family="Calibri,Calibri_MSFontService,sans-serif" font-style="normal" font-variant="normal" font-weight="400" font-stretch="normal" font-size="41" text-anchor="start" direction="ltr" writing-mode="lr-tb" unicode-bidi="normal" text-decoration="none" transform="matrix(1 0 0 1 3131.78 3079)">356</text></g><g clip-path="url(#clip12)"><text fill="#404040" fill-opacity="1" font-family="Calibri,Calibri_MSFontService,sans-serif" font-style="normal" font-variant="normal" font-weight="400" font-stretch="normal" font-size="41" text-anchor="start" direction="ltr" writing-mode="lr-tb" unicode-bidi="normal" text-decoration="none" transform="matrix(1 0 0 1 3137.5 2929)">435</text></g><g clip-path="url(#clip13)"><text fill="#404040" fill-opacity="1" font-family="Calibri,Calibri_MSFontService,sans-serif" font-style="normal" font-variant="normal" font-weight="400" font-stretch="normal" font-size="48" text-anchor="start" direction="ltr" writing-mode="lr-tb" unicode-bidi="normal" text-decoration="none" transform="matrix(1 0 0 1 3486.84 4088)">5,258</text></g><g clip-path="url(#clip14)"><text fill="#404040" fill-opacity="1" font-family="Calibri,Calibri_MSFontService,sans-serif" font-style="normal" font-variant="normal" font-weight="400" font-stretch="normal" font-size="48" text-anchor="start" direction="ltr" writing-mode="lr-tb" unicode-bidi="normal" text-decoration="none" transform="matrix(1 0 0 1 3499.95 3939)">5,439</text></g><g clip-path="url(#clip15)"><text fill="#404040" fill-opacity="1" font-family="Calibri,Calibri_MSFontService,sans-serif" font-style="normal" font-variant="normal" font-weight="400" font-stretch="normal" font-size="48" text-anchor="start" direction="ltr" writing-mode="lr-tb" unicode-bidi="normal" text-decoration="none" transform="matrix(1 0 0 1 3543.99 3789)">6,047</text></g><g clip-path="url(#clip16)"><text fill="#404040" fill-opacity="1" font-family="Calibri,Calibri_MSFontService,sans-serif" font-style="normal" font-variant="normal" font-weight="400" font-stretch="normal" font-size="48" text-anchor="start" direction="ltr" writing-mode="lr-tb" unicode-bidi="normal" text-decoration="none" transform="matrix(1 0 0 1 3550.43 3640)">6,136</text></g><g clip-path="url(#clip17)"><text fill="#404040" fill-opacity="1" font-family="Calibri,Calibri_MSFontService,sans-serif" font-style="normal" font-variant="normal" font-weight="400" font-stretch="normal" font-size="48" text-anchor="start" direction="ltr" writing-mode="lr-tb" unicode-bidi="normal" text-decoration="none" transform="matrix(1 0 0 1 3572.16 3491)">6,436</text></g><g clip-path="url(#clip18)"><text fill="#404040" fill-opacity="1" font-family="Calibri,Calibri_MSFontService,sans-serif" font-style="normal" font-variant="normal" font-weight="400" font-stretch="normal" font-size="48" text-anchor="start" direction="ltr" writing-mode="lr-tb" unicode-bidi="normal" text-decoration="none" transform="matrix(1 0 0 1 3623.8 3341)">7,149</text></g><g clip-path="url(#clip19)"><text fill="#404040" fill-opacity="1" font-family="Calibri,Calibri_MSFontService,sans-serif" font-style="normal" font-variant="normal" font-weight="400" font-stretch="normal" font-size="48" text-anchor="start" direction="ltr" writing-mode="lr-tb" unicode-bidi="normal" text-decoration="none" transform="matrix(1 0 0 1 4243.09 3192)">15,699</text></g><g clip-path="url(#clip20)"><text fill="#404040" fill-opacity="1" font-family="Calibri,Calibri_MSFontService,sans-serif" font-style="normal" font-variant="normal" font-weight="400" font-stretch="normal" font-size="48" text-anchor="start" direction="ltr" writing-mode="lr-tb" unicode-bidi="normal" text-decoration="none" transform="matrix(1 0 0 1 4713.89 3042)">22,199</text></g><g clip-path="url(#clip21)"><text fill="#404040" fill-opacity="1" font-family="Calibri,Calibri_MSFontService,sans-serif" font-style="normal" font-variant="normal" font-weight="400" font-stretch="normal" font-size="48" text-anchor="start" direction="ltr" writing-mode="lr-tb" unicode-bidi="normal" text-decoration="none" transform="matrix(1 0 0 1 4962.25 2893)">25,628</text></g><g clip-path="url(#clip22)"><text fill="#595959" fill-opacity="1" font-family="Calibri,Calibri_MSFontService,sans-serif" font-style="normal" font-variant="normal" font-weight="400" font-stretch="normal" font-size="48" text-anchor="start" direction="ltr" writing-mode="lr-tb" unicode-bidi="normal" text-decoration="none" transform="matrix(1 0 0 1 3066.31 4242)">0</text></g><g clip-path="url(#clip23)"><text fill="#595959" fill-opacity="1" font-family="Calibri,Calibri_MSFontService,sans-serif" font-style="normal" font-variant="normal" font-weight="400" font-stretch="normal" font-size="48" text-anchor="start" direction="ltr" writing-mode="lr-tb" unicode-bidi="normal" text-decoration="none" transform="matrix(1 0 0 1 3385.88 4242)">5,000</text></g><g clip-path="url(#clip24)"><text fill="#595959" fill-opacity="1" font-family="Calibri,Calibri_MSFontService,sans-serif" font-style="normal" font-variant="normal" font-weight="400" font-stretch="normal" font-size="48" text-anchor="start" direction="ltr" writing-mode="lr-tb" unicode-bidi="normal" text-decoration="none" transform="matrix(1 0 0 1 3735.84 4242)">10,000</text></g><g clip-path="url(#clip25)"><text fill="#595959" fill-opacity="1" font-family="Calibri,Calibri_MSFontService,sans-serif" font-style="normal" font-variant="normal" font-weight="400" font-stretch="normal" font-size="48" text-anchor="start" direction="ltr" writing-mode="lr-tb" unicode-bidi="normal" text-decoration="none" transform="matrix(1 0 0 1 4098 4242)">15,000</text></g><g clip-path="url(#clip26)"><text fill="#595959" fill-opacity="1" font-family="Calibri,Calibri_MSFontService,sans-serif" font-style="normal" font-variant="normal" font-weight="400" font-stretch="normal" font-size="48" text-anchor="start" direction="ltr" writing-mode="lr-tb" unicode-bidi="normal" text-decoration="none" transform="matrix(1 0 0 1 4460.15 4242)">20,000</text></g><g clip-path="url(#clip27)"><text fill="#595959" fill-opacity="1" font-family="Calibri,Calibri_MSFontService,sans-serif" font-style="normal" font-variant="normal" font-weight="400" font-stretch="normal" font-size="48" text-anchor="start" direction="ltr" writing-mode="lr-tb" unicode-bidi="normal" text-decoration="none" transform="matrix(1 0 0 1 4822.31 4242)">25,000</text></g><g clip-path="url(#clip28)"><text fill="#595959" fill-opacity="1" font-family="Calibri,Calibri_MSFontService,sans-serif" font-style="normal" font-variant="normal" font-weight="400" font-stretch="normal" font-size="48" text-anchor="start" direction="ltr" writing-mode="lr-tb" unicode-bidi="normal" text-decoration="none" transform="matrix(1 0 0 1 5184.46 4242)">30,000</text></g><g clip-path="url(#clip29)"><text fill="#595959" fill-opacity="1" font-family="Calibri,Calibri_MSFontService,sans-serif" font-style="normal" font-variant="normal" font-weight="400" font-stretch="normal" font-size="48" text-anchor="start" direction="ltr" writing-mode="lr-tb" unicode-bidi="normal" text-decoration="none" transform="matrix(1 0 0 1 2882.8 4104)">Finance</text></g><g clip-path="url(#clip30)"><text fill="#595959" fill-opacity="1" font-family="Calibri,Calibri_MSFontService,sans-serif" font-style="normal" font-variant="normal" font-weight="400" font-stretch="normal" font-size="48" text-anchor="start" direction="ltr" writing-mode="lr-tb" unicode-bidi="normal" text-decoration="none" transform="matrix(1 0 0 1 2681.53 3955)">Human Resources</text></g><g clip-path="url(#clip31)"><text fill="#595959" fill-opacity="1" font-family="Calibri,Calibri_MSFontService,sans-serif" font-style="normal" font-variant="normal" font-weight="400" font-stretch="normal" font-size="48" text-anchor="start" direction="ltr" writing-mode="lr-tb" unicode-bidi="normal" text-decoration="none" transform="matrix(1 0 0 1 2832 3805)">Marketing</text></g><g clip-path="url(#clip32)"><text fill="#595959" fill-opacity="1" font-family="Calibri,Calibri_MSFontService,sans-serif" font-style="normal" font-variant="normal" font-weight="400" font-stretch="normal" font-size="48" text-anchor="start" direction="ltr" writing-mode="lr-tb" unicode-bidi="normal" text-decoration="none" transform="matrix(1 0 0 1 2619.37 3656)">Quality Management</text></g><g clip-path="url(#clip33)"><text fill="#595959" fill-opacity="1" font-family="Calibri,Calibri_MSFontService,sans-serif" font-style="normal" font-variant="normal" font-weight="400" font-stretch="normal" font-size="48" text-anchor="start" direction="ltr" writing-mode="lr-tb" unicode-bidi="normal" text-decoration="none" transform="matrix(1 0 0 1 2855.58 3506)">Research</text></g><g clip-path="url(#clip34)"><text fill="#595959" fill-opacity="1" font-family="Calibri,Calibri_MSFontService,sans-serif" font-style="normal" font-variant="normal" font-weight="400" font-stretch="normal" font-size="48" text-anchor="start" direction="ltr" writing-mode="lr-tb" unicode-bidi="normal" text-decoration="none" transform="matrix(1 0 0 1 2692.66 3357)">Customer Service</text></g><g clip-path="url(#clip35)"><text fill="#595959" fill-opacity="1" font-family="Calibri,Calibri_MSFontService,sans-serif" font-style="normal" font-variant="normal" font-weight="400" font-stretch="normal" font-size="48" text-anchor="start" direction="ltr" writing-mode="lr-tb" unicode-bidi="normal" text-decoration="none" transform="matrix(1 0 0 1 2934.89 3207)">Sales</text></g><g clip-path="url(#clip36)"><text fill="#595959" fill-opacity="1" font-family="Calibri,Calibri_MSFontService,sans-serif" font-style="normal" font-variant="normal" font-weight="400" font-stretch="normal" font-size="48" text-anchor="start" direction="ltr" writing-mode="lr-tb" unicode-bidi="normal" text-decoration="none" transform="matrix(1 0 0 1 2818.15 3058)">Production</text></g><g clip-path="url(#clip37)"><text fill="#595959" fill-opacity="1" font-family="Calibri,Calibri_MSFontService,sans-serif" font-style="normal" font-variant="normal" font-weight="400" font-stretch="normal" font-size="48" text-anchor="start" direction="ltr" writing-mode="lr-tb" unicode-bidi="normal" text-decoration="none" transform="matrix(1 0 0 1 2769.16 2909)">Development</text></g><g clip-path="url(#clip38)"><text fill="#595959" fill-opacity="1" font-family="Calibri,Calibri_MSFontService,sans-serif" font-style="normal" font-variant="normal" font-weight="400" font-stretch="normal" font-size="73" text-anchor="start" direction="ltr" writing-mode="lr-tb" unicode-bidi="normal" text-decoration="none" transform="matrix(1 0 0 1 3013.06 2744)">Employees Retiring compared to Eligible Mentors by Department</text></g><rect x="2590.5" y="2640.5" width="2779" height="1645" stroke="#D9D9D9" stroke-width="3.4375" stroke-linecap="butt" stroke-linejoin="round" stroke-miterlimit="10" stroke-opacity="1" fill="none"/></g></svg>