<svg width="4057" height="1581" xmlns="http://www.w3.org/2000/svg" xmlns:xlink="http://www.w3.org/1999/xlink" overflow="hidden"><defs><clipPath id="clip0"><rect x="1608" y="3579" width="4057" height="1581"/></clipPath><clipPath id="clip1"><rect x="1843" y="3774" width="3770" height="1240"/></clipPath><clipPath id="clip2"><rect x="1843" y="3774" width="3770" height="1240"/></clipPath><clipPath id="clip3"><rect x="1613" y="3584" width="4047" height="1572"/></clipPath><clipPath id="clip4"><rect x="1613" y="3584" width="4047" height="1572"/></clipPath><clipPath id="clip5"><rect x="1613" y="3584" width="4047" height="1572"/></clipPath><clipPath id="clip6"><rect x="1613" y="3584" width="4047" height="1572"/></clipPath><clipPath id="clip7"><rect x="1613" y="3584" width="4047" height="1572"/></clipPath><clipPath id="clip8"><rect x="1613" y="3584" width="4047" height="1572"/></clipPath><clipPath id="clip9"><rect x="1613" y="3584" width="4047" height="1572"/></clipPath><clipPath id="clip10"><rect x="1613" y="3584" width="4047" height="1572"/></clipPath><clipPath id="clip11"><rect x="1613" y="3584" width="4047" height="1572"/></clipPath><clipPath id="clip12"><rect x="1613" y="3584" width="4047" height="1572"/></clipPath><clipPath id="clip13"><rect x="1613" y="3584" width="4047" height="1572"/></clipPath><clipPath id="clip14"><rect x="1613" y="3584" width="4047" height="1572"/></clipPath><clipPath id="clip15"><rect x="1613" y="3584" width="4047" height="1572"/></clipPath><clipPath id="clip16"><rect x="1613" y="3584" width="4047" height="1572"/></clipPath><clipPath id="clip17"><rect x="1613" y="3584" width="4047" height="1572"/></clipPath><clipPath id="clip18"><rect x="1613" y="3584" width="4047" height="1572"/></clipPath><clipPath id="clip19"><rect x="1613" y="3584" width="4047" height="1572"/></clipPath><clipPath id="clip20"><rect x="1613" y="3584" width="4047" height="1572"/></clipPath><clipPath id="clip21"><rect x="1613" y="3584" width="4047" height="1572"/></clipPath><clipPath id="clip22"><rect x="1613" y="3584" width="4047" height="1572"/></clipPath><clipPath id="clip23"><rect x="1613" y="3584" width="4047" height="1572"/></clipPath><clipPath id="clip24"><rect x="1613" y="3584" width="4047" height="1572"/></clipPath><clipPath id="clip25"><rect x="1613" y="3584" width="4047" height="1572"/></clipPath><clipPath id="clip26"><rect x="1613" y="3584" width="4047" height="1572"/></clipPath><clipPath id="clip27"><rect x="1613" y="3584" width="4047" height="1572"/></clipPath><clipPath id="clip28"><rect x="1613" y="3584" width="4047" height="1572"/></clipPath><clipPath id="clip29"><rect x="1613" y="3584" width="4047" height="1572"/></clipPath><clipPath id="clip30"><rect x="1613" y="3584" width="4047" height="1572"/></clipPath><clipPath id="clip31"><rect x="1613" y="3584" width="4047" height="1572"/></clipPath><clipPath id="clip32"><rect x="1613" y="3584" width="4047" height="1572"/></clipPath></defs><g clip-path="url(#clip0)" transform="translate(-1608 -3579)"><rect x="1613" y="3584" width="4047" height="1572" fill="#FFFFFF" fill-opacity="1"/><g clip-path="url(#clip1)"><path d="M1975.06 3971.13 2096.07 3971.13 2096.07 5011 1975.06 5011ZM2514.08 4012.13 2634.09 4012.13 2634.09 5011 2514.08 5011ZM3052.1 4508.15 3172.1 4508.15 3172.1 5011 3052.1 5011ZM3590.12 4578.15 3710.12 4578.15 3710.12 5011 3590.12 5011ZM4128.14 4852.16 4248.14 4852.16 4248.14 5011 4128.14 5011ZM4666.15 4948.16 4786.16 4948.16 4786.16 5011 4666.15 5011ZM5204.17 5010 5324.17 5010 5324.17 5011 5204.17 5011Z" fill="#4472C4" fill-rule="nonzero" fill-opacity="1"/></g><g clip-path="url(#clip2)"><path d="M2129.07 4992.16 2249.07 4992.16 2249.07 5011 2129.07 5011ZM2667.09 4991.16 2787.09 4991.16 2787.09 5011 2667.09 5011ZM3205.11 5004.16 3325.11 5004.16 3325.11 5011 3205.11 5011ZM3743.12 5005.16 3864.13 5005.16 3864.13 5011 3743.12 5011ZM4281.14 5008.16 4402.14 5008.16 4402.14 5011 4281.14 5011ZM4819.16 5010.16 4940.16 5010.16 4940.16 5011 4819.16 5011Z" fill="#ED7D31" fill-rule="nonzero" fill-opacity="1"/></g><g clip-path="url(#clip3)"><path d="M1843.5 5010.5 5610.5 5010.5" stroke="#D9D9D9" stroke-width="3.4375" stroke-linecap="butt" stroke-linejoin="round" stroke-miterlimit="10" stroke-opacity="1" fill="none" fill-rule="evenodd"/></g><g clip-path="url(#clip4)"><text fill="#404040" fill-opacity="1" font-family="Calibri,Calibri_MSFontService,sans-serif" font-style="normal" font-variant="normal" font-weight="400" font-stretch="normal" font-size="48" text-anchor="start" direction="ltr" writing-mode="lr-tb" unicode-bidi="normal" text-decoration="none" transform="matrix(1 0 0 1 1974.36 3938)">29,414 </text></g><g clip-path="url(#clip5)"><text fill="#404040" fill-opacity="1" font-family="Calibri,Calibri_MSFontService,sans-serif" font-style="normal" font-variant="normal" font-weight="400" font-stretch="normal" font-size="48" text-anchor="start" direction="ltr" writing-mode="lr-tb" unicode-bidi="normal" text-decoration="none" transform="matrix(1 0 0 1 2512.44 3979)">28,255 </text></g><g clip-path="url(#clip6)"><text fill="#404040" fill-opacity="1" font-family="Calibri,Calibri_MSFontService,sans-serif" font-style="normal" font-variant="normal" font-weight="400" font-stretch="normal" font-size="48" text-anchor="start" direction="ltr" writing-mode="lr-tb" unicode-bidi="normal" text-decoration="none" transform="matrix(1 0 0 1 3050.51 4475)">14,222 </text></g><g clip-path="url(#clip7)"><text fill="#404040" fill-opacity="1" font-family="Calibri,Calibri_MSFontService,sans-serif" font-style="normal" font-variant="normal" font-weight="400" font-stretch="normal" font-size="48" text-anchor="start" direction="ltr" writing-mode="lr-tb" unicode-bidi="normal" text-decoration="none" transform="matrix(1 0 0 1 3588.59 4545)">12,242 </text></g><g clip-path="url(#clip8)"><text fill="#404040" fill-opacity="1" font-family="Calibri,Calibri_MSFontService,sans-serif" font-style="normal" font-variant="normal" font-weight="400" font-stretch="normal" font-size="48" text-anchor="start" direction="ltr" writing-mode="lr-tb" unicode-bidi="normal" text-decoration="none" transform="matrix(1 0 0 1 4138.86 4819)">4,500 </text></g><g clip-path="url(#clip9)"><text fill="#404040" fill-opacity="1" font-family="Calibri,Calibri_MSFontService,sans-serif" font-style="normal" font-variant="normal" font-weight="400" font-stretch="normal" font-size="48" text-anchor="start" direction="ltr" writing-mode="lr-tb" unicode-bidi="normal" text-decoration="none" transform="matrix(1 0 0 1 4676.94 4915)">1,761 </text></g><g clip-path="url(#clip10)"><text fill="#404040" fill-opacity="1" font-family="Calibri,Calibri_MSFontService,sans-serif" font-style="normal" font-variant="normal" font-weight="400" font-stretch="normal" font-size="48" text-anchor="start" direction="ltr" writing-mode="lr-tb" unicode-bidi="normal" text-decoration="none" transform="matrix(1 0 0 1 5257.6 4977)">4 </text></g><g clip-path="url(#clip11)"><text fill="#404040" fill-opacity="1" font-family="Calibri,Calibri_MSFontService,sans-serif" font-style="normal" font-variant="normal" font-weight="400" font-stretch="normal" font-size="48" text-anchor="start" direction="ltr" writing-mode="lr-tb" unicode-bidi="normal" text-decoration="none" transform="matrix(1 0 0 1 2152.52 4959)">529</text></g><g clip-path="url(#clip12)"><text fill="#404040" fill-opacity="1" font-family="Calibri,Calibri_MSFontService,sans-serif" font-style="normal" font-variant="normal" font-weight="400" font-stretch="normal" font-size="48" text-anchor="start" direction="ltr" writing-mode="lr-tb" unicode-bidi="normal" text-decoration="none" transform="matrix(1 0 0 1 2690.6 4957)">569</text></g><g clip-path="url(#clip13)"><text fill="#404040" fill-opacity="1" font-family="Calibri,Calibri_MSFontService,sans-serif" font-style="normal" font-variant="normal" font-weight="400" font-stretch="normal" font-size="48" text-anchor="start" direction="ltr" writing-mode="lr-tb" unicode-bidi="normal" text-decoration="none" transform="matrix(1 0 0 1 3228.68 4971)">190</text></g><g clip-path="url(#clip14)"><text fill="#404040" fill-opacity="1" font-family="Calibri,Calibri_MSFontService,sans-serif" font-style="normal" font-variant="normal" font-weight="400" font-stretch="normal" font-size="48" text-anchor="start" direction="ltr" writing-mode="lr-tb" unicode-bidi="normal" text-decoration="none" transform="matrix(1 0 0 1 3766.76 4972)">155</text></g><g clip-path="url(#clip15)"><text fill="#404040" fill-opacity="1" font-family="Calibri,Calibri_MSFontService,sans-serif" font-style="normal" font-variant="normal" font-weight="400" font-stretch="normal" font-size="48" text-anchor="start" direction="ltr" writing-mode="lr-tb" unicode-bidi="normal" text-decoration="none" transform="matrix(1 0 0 1 4317.03 4975)">77</text></g><g clip-path="url(#clip16)"><text fill="#404040" fill-opacity="1" font-family="Calibri,Calibri_MSFontService,sans-serif" font-style="normal" font-variant="normal" font-weight="400" font-stretch="normal" font-size="48" text-anchor="start" direction="ltr" writing-mode="lr-tb" unicode-bidi="normal" text-decoration="none" transform="matrix(1 0 0 1 4855.11 4976)">29</text></g><g clip-path="url(#clip17)"><text fill="#595959" fill-opacity="1" font-family="Calibri,Calibri_MSFontService,sans-serif" font-style="normal" font-variant="normal" font-weight="400" font-stretch="normal" font-size="48" text-anchor="start" direction="ltr" writing-mode="lr-tb" unicode-bidi="normal" text-decoration="none" transform="matrix(1 0 0 1 1740.54 5024)"> -</text></g><g clip-path="url(#clip18)"><text fill="#595959" fill-opacity="1" font-family="Calibri,Calibri_MSFontService,sans-serif" font-style="normal" font-variant="normal" font-weight="400" font-stretch="normal" font-size="48" text-anchor="start" direction="ltr" writing-mode="lr-tb" unicode-bidi="normal" text-decoration="none" transform="matrix(1 0 0 1 1667.51 4847)"> 5,000</text></g><g clip-path="url(#clip19)"><text fill="#595959" fill-opacity="1" font-family="Calibri,Calibri_MSFontService,sans-serif" font-style="normal" font-variant="normal" font-weight="400" font-stretch="normal" font-size="48" text-anchor="start" direction="ltr" writing-mode="lr-tb" unicode-bidi="normal" text-decoration="none" transform="matrix(1 0 0 1 1643.12 4670)"> 10,000</text></g><g clip-path="url(#clip20)"><text fill="#595959" fill-opacity="1" font-family="Calibri,Calibri_MSFontService,sans-serif" font-style="normal" font-variant="normal" font-weight="400" font-stretch="normal" font-size="48" text-anchor="start" direction="ltr" writing-mode="lr-tb" unicode-bidi="normal" text-decoration="none" transform="matrix(1 0 0 1 1643.12 4494)"> 15,000</text></g><g clip-path="url(#clip21)"><text fill="#595959" fill-opacity="1" font-family="Calibri,Calibri_MSFontService,sans-serif" font-style="normal" font-variant="normal" font-weight="400" font-stretch="normal" font-size="48" text-anchor="start" direction="ltr" writing-mode="lr-tb" unicode-bidi="normal" text-decoration="none" transform="matrix(1 0 0 1 1643.12 4317)"> 20,000</text></g><g clip-path="url(#clip22)"><text fill="#595959" fill-opacity="1" font-family="Calibri,Calibri_MSFontService,sans-serif" font-style="normal" font-variant="normal" font-weight="400" font-stretch="normal" font-size="48" text-anchor="start" direction="ltr" writing-mode="lr-tb" unicode-bidi="normal" text-decoration="none" transform="matrix(1 0 0 1 1643.12 4140)"> 25,000</text></g><g clip-path="url(#clip23)"><text fill="#595959" fill-opacity="1" font-family="Calibri,Calibri_MSFontService,sans-serif" font-style="normal" font-variant="normal" font-weight="400" font-stretch="normal" font-size="48" text-anchor="start" direction="ltr" writing-mode="lr-tb" unicode-bidi="normal" text-decoration="none" transform="matrix(1 0 0 1 1643.12 3964)"> 30,000</text></g><g clip-path="url(#clip24)"><text fill="#595959" fill-opacity="1" font-family="Calibri,Calibri_MSFontService,sans-serif" font-style="normal" font-variant="normal" font-weight="400" font-stretch="normal" font-size="48" text-anchor="start" direction="ltr" writing-mode="lr-tb" unicode-bidi="normal" text-decoration="none" transform="matrix(1 0 0 1 1643.12 3787)"> 35,000</text></g><g clip-path="url(#clip25)"><text fill="#595959" fill-opacity="1" font-family="Calibri,Calibri_MSFontService,sans-serif" font-style="normal" font-variant="normal" font-weight="400" font-stretch="normal" font-size="55" text-anchor="start" direction="ltr" writing-mode="lr-tb" unicode-bidi="normal" text-decoration="none" transform="matrix(1 0 0 1 1936.54 5098)">Senior Engineer</text></g><g clip-path="url(#clip26)"><text fill="#595959" fill-opacity="1" font-family="Calibri,Calibri_MSFontService,sans-serif" font-style="normal" font-variant="normal" font-weight="400" font-stretch="normal" font-size="55" text-anchor="start" direction="ltr" writing-mode="lr-tb" unicode-bidi="normal" text-decoration="none" transform="matrix(1 0 0 1 2521.36 5098)">Senior Staff</text></g><g clip-path="url(#clip27)"><text fill="#595959" fill-opacity="1" font-family="Calibri,Calibri_MSFontService,sans-serif" font-style="normal" font-variant="normal" font-weight="400" font-stretch="normal" font-size="55" text-anchor="start" direction="ltr" writing-mode="lr-tb" unicode-bidi="normal" text-decoration="none" transform="matrix(1 0 0 1 3090.1 5098)">Engineer</text></g><g clip-path="url(#clip28)"><text fill="#595959" fill-opacity="1" font-family="Calibri,Calibri_MSFontService,sans-serif" font-style="normal" font-variant="normal" font-weight="400" font-stretch="normal" font-size="55" text-anchor="start" direction="ltr" writing-mode="lr-tb" unicode-bidi="normal" text-decoration="none" transform="matrix(1 0 0 1 3674.92 5098)">Staff</text></g><g clip-path="url(#clip29)"><text fill="#595959" fill-opacity="1" font-family="Calibri,Calibri_MSFontService,sans-serif" font-style="normal" font-variant="normal" font-weight="400" font-stretch="normal" font-size="55" text-anchor="start" direction="ltr" writing-mode="lr-tb" unicode-bidi="normal" text-decoration="none" transform="matrix(1 0 0 1 4065.93 5098)">Technique Leader</text></g><g clip-path="url(#clip30)"><text fill="#595959" fill-opacity="1" font-family="Calibri,Calibri_MSFontService,sans-serif" font-style="normal" font-variant="normal" font-weight="400" font-stretch="normal" font-size="55" text-anchor="start" direction="ltr" writing-mode="lr-tb" unicode-bidi="normal" text-decoration="none" transform="matrix(1 0 0 1 4597.56 5098)">Assistant Engineer</text></g><g clip-path="url(#clip31)"><text fill="#595959" fill-opacity="1" font-family="Calibri,Calibri_MSFontService,sans-serif" font-style="normal" font-variant="normal" font-weight="400" font-stretch="normal" font-size="55" text-anchor="start" direction="ltr" writing-mode="lr-tb" unicode-bidi="normal" text-decoration="none" transform="matrix(1 0 0 1 5240.42 5098)">Manager</text></g><g clip-path="url(#clip32)"><text fill="#595959" fill-opacity="1" font-family="Calibri,Calibri_MSFontService,sans-serif" font-style="normal" font-variant="normal" font-weight="400" font-stretch="normal" font-size="64" text-anchor="start" direction="ltr" writing-mode="lr-tb" unicode-bidi="normal" text-decoration="none" transform="matrix(1 0 0 1 2893.11 3680)">Employees Retiring compared to Eligible Mentors by Title</text></g><rect x="1613.5" y="3584.5" width="4047" height="1572" stroke="#D9D9D9" stroke-width="3.4375" stroke-linecap="butt" stroke-linejoin="round" stroke-miterlimit="10" stroke-opacity="1" fill="none"/></g></svg>